<svg xmlns="http://www.w3.org/2000/svg" width="512" height="512" fill-rule="evenodd" clip-rule="evenodd" image-rendering="optimizeQuality" shape-rendering="geometricPrecision" text-rendering="geometricPrecision" viewBox="0 0 512 512" id="Facebook">
  <path fill-rule="nonzero" d="M217.71 377.47l0 -116.54 -16.46 0c-5,0 -9.05,-4.06 -9.05,-9.05l0 -36.9c0,-4.97 4.07,-9.04 9.05,-9.04l16.46 0 0 -29.67c0,-28.05 22.75,-50.79 50.8,-50.79l42.24 0c5,0 9.05,4.05 9.05,9.05l0 36.89c0,5 -4.05,9.05 -9.05,9.05l-25 0c-2.85,0 -5.2,2.35 -5.2,5.2l0 20.29 29.65 -0.02c5,0.35 9.05,3.72 9.05,9.04 -0.88,12.5 -2.1,25.13 -3.16,37.65 -0.39,4.67 -4.32,8.3 -9.01,8.3l-26.53 0 0 116.54c0,4.97 -4.06,9.04 -9.04,9.04l-44.75 0.01c-4.99,0 -9.05,-4.06 -9.05,-9.05zm11.82 -2.75l39.2 0 0 -125.61 35.81 0 2.65 -31.38 -38.46 0 0 -32.06c0,-9.4 7.62,-17.02 17.02,-17.02l22.23 0 0 -31.35 -39.47 0c-21.53,0 -38.98,17.45 -38.98,38.97l0 41.48 -25.51 0 0 31.36 25.51 0 0 125.61z" fill="#8338ec" class="color000000 svgShape"></path>
</svg>
