<svg xmlns="http://www.w3.org/2000/svg" width="512" height="512" fill-rule="evenodd" clip-rule="evenodd" image-rendering="optimizeQuality" shape-rendering="geometricPrecision" text-rendering="geometricPrecision" viewBox="0 0 512 512" id="Twitter">
  <path fill-rule="nonzero" d="M402.16 162.14c-4.33,-2.93 -18.28,6.53 -23.82,8.14 3.55,-4.15 20.89,-24.82 14.66,-31.39 -10.24,5.83 -22.33,11.48 -38.83,11.96 -11.72,-11.14 -26.92,-17.25 -43.08,-17.25 -38.61,0 -67.39,34.61 -62.44,72.34 -60.91,-1.03 -105.78,-61.2 -113.08,-60.51 -1.96,0.17 -3.71,1.29 -4.7,2.99 -16.71,29 -6.5,54.6 3.75,69.93 -4.6,-2.74 -12,-5.06 -12.13,3.09 -0.46,27.81 12.54,44.08 25.17,53.3 -3.65,0.51 -6.03,4.17 -4.95,7.73 8.76,28.66 30,38.82 44.02,42.41 -28.37,21.4 -69.48,14.42 -69.94,14.33 -6.19,-1.09 -9.7,6.92 -4.71,10.72 33.82,25.82 86.3,33.9 127.62,24.97 131.77,-31.23 135.95,-151.62 135.68,-172.14 3.84,-3.57 28.98,-24.89 26.78,-40.62zm-38.89 38.47c0.02,0.33 2.04,32.96 -12.5,69.32 -19.43,48.58 -57.73,79.96 -113.72,93.23 -0.6,0.12 -52.4,10.85 -97.87,-10.78 19.44,-0.81 46.36,-6.29 65.3,-27.55 1.58,-1.77 1.96,-4.52 0.99,-6.68 -3.81,-8.46 -32.1,1 -47.7,-30.44 5.55,0.24 21.23,0.14 20.25,-8.54 -1.15,-10.15 -36.99,-5.63 -42.87,-47.09 5.17,2.15 19.58,6.34 21.89,-1.57 2.72,-9.33 -35.51,-28.13 -19.43,-68.46 16.22,16.9 62.51,59 118.63,55.78 3.76,-0.22 6.41,-3.82 5.49,-7.48 -8.05,-32.09 15.44,-64.71 49.36,-64.71 13.74,0 26.63,5.48 36.3,15.45 4.65,4.8 25.1,-2.23 30.24,-4.14 -3.09,3.62 -8.34,9.42 -14.38,14.16 -2.09,1.64 -2.86,4.46 -1.89,6.93 2.57,6.58 17.01,2.36 22.16,1.32 -4.26,4.53 -18.62,15.71 -20.25,21.25z" fill="#8338ec" class="color000000 svgShape"></path>
</svg>
